<?xml version="1.0" standalone="no"?>
<!DOCTYPE svg PUBLIC "-//W3C//DTD SVG 20010904//EN"
 "http://www.w3.org/TR/2001/REC-SVG-20010904/DTD/svg10.dtd">
<svg version="1.0" xmlns="http://www.w3.org/2000/svg"
 width="1228.000000pt" height="1280.000000pt" viewBox="0 0 1228.000000 1280.000000"
 preserveAspectRatio="xMidYMid meet">
<metadata>
Created by potrace 1.15, written by Peter Selinger 2001-2017
</metadata>
<g transform="translate(0.000000,1280.000000) scale(0.100000,-0.100000)"
fill="#000000" stroke="none">
<path d="M3612 12790 c-27 -11 -44 -52 -36 -86 3 -13 41 -55 83 -93 233 -211
430 -498 505 -738 72 -232 86 -395 86 -1032 0 -268 5 -859 10 -1316 5 -456 10
-988 11 -1180 l3 -350 -1484 -2010 c-816 -1106 -1675 -2269 -1909 -2585 -233
-316 -450 -616 -482 -665 -197 -313 -325 -645 -381 -990 -18 -117 -16 -428 5
-540 39 -211 113 -396 224 -564 73 -111 243 -279 356 -355 215 -143 471 -234
747 -265 66 -8 1518 -12 4760 -13 4441 -3 4671 -2 4788 15 159 23 363 75 483
122 483 191 778 525 876 995 24 114 24 396 0 525 -78 420 -274 804 -627 1230
-37 44 -563 769 -1170 1610 -608 842 -1421 1968 -1808 2504 l-703 975 -35
1325 c-42 1568 -48 2207 -22 2351 48 268 145 485 314 705 29 39 110 130 179
202 104 109 125 136 125 162 0 18 -9 38 -22 51 l-22 20 -2415 -1 c-1426 0
-2425 -4 -2439 -9z m4588 -207 c-180 -196 -310 -410 -385 -637 -58 -174 -80
-314 -91 -576 l-7 -160 -639 0 -639 0 -24 -25 c-28 -27 -31 -61 -9 -90 15 -20
30 -20 667 -25 l652 -5 2 -110 c2 -60 12 -461 23 -890 11 -429 20 -819 20
-867 l0 -88 -669 0 -670 0 -20 -26 c-27 -34 -27 -62 1 -91 l21 -23 673 0 672
0 7 -292 c4 -161 10 -394 14 -518 l6 -225 357 -495 358 -495 -669 -5 c-640 -5
-670 -6 -690 -24 -28 -25 -28 -77 0 -102 20 -18 46 -19 704 -19 l683 0 24 22
24 22 572 -792 571 -792 -639 -3 -639 -2 -20 -26 c-26 -34 -26 -54 0 -88 l20
-26 692 0 692 0 554 -768 553 -767 -600 -5 c-572 -5 -601 -6 -621 -24 -31 -28
-28 -79 5 -105 26 -21 34 -21 678 -21 l651 0 208 -288 c115 -158 249 -336 299
-397 267 -326 456 -695 530 -1035 19 -88 22 -136 23 -300 0 -210 -8 -263 -61
-412 -137 -381 -470 -653 -948 -773 -280 -71 112 -66 -5071 -62 l-4670 3 -114
22 c-613 119 -1005 502 -1097 1071 -17 102 -18 348 -3 458 40 296 157 612 341
916 32 54 922 1267 1978 2697 1055 1429 1924 2609 1931 2621 9 17 9 275 -1
1103 -6 595 -13 1374 -15 1731 -2 387 -8 692 -15 755 -39 370 -151 643 -380
930 -38 47 -91 108 -120 135 l-51 50 2213 5 c1217 3 2215 4 2217 3 2 -1 -25
-33 -59 -70z"/>
</g>
</svg>
